<svg width="80" height="80" viewBox="0 0 80 80" fill="none" xmlns="http://www.w3.org/2000/svg">
<rect width="80" height="80" rx="21" fill="#FF8325"/>
<rect width="5.74969" height="5.74969" transform="matrix(0.86601 0.500028 3.18351e-05 1 29.9795 44.501)" fill="#6E6E6E"/>
<rect width="5.74969" height="5.74969" transform="matrix(0.86601 -0.500028 -3.18351e-05 1 25.0002 47.376)" fill="#5A5A5A"/>
<rect width="5.74969" height="5.74969" transform="matrix(0.866041 0.499972 -0.866041 0.499972 29.9795 50.2505)" fill="#AAAAAA"/>
<rect width="5.74969" height="5.74969" transform="matrix(0.86601 0.500028 3.18351e-05 1 25.0001 47.3753)" fill="#2E1B9C"/>
<rect width="5.74969" height="5.74969" transform="matrix(0.86601 -0.500028 -3.18351e-05 1 29.9795 50.2503)" fill="#3D24D5"/>
<rect width="5.74969" height="5.74969" transform="matrix(0.866041 -0.499972 0.866041 0.499972 25.0001 47.3758)" fill="#828282"/>
<rect width="5.74969" height="5.74969" transform="matrix(0.86601 0.500028 3.18351e-05 1 29.9795 38.7508)" fill="#6E6E6E"/>
<rect width="5.74969" height="5.74969" transform="matrix(0.86601 -0.500028 -3.18351e-05 1 25.0002 41.6258)" fill="#5A5A5A"/>
<rect width="5.74969" height="5.74969" transform="matrix(0.866041 0.499972 -0.866041 0.499972 29.9795 44.5003)" fill="#AAAAAA"/>
<rect width="5.74969" height="5.74969" transform="matrix(0.86601 0.500028 3.18351e-05 1 25.0001 41.6249)" fill="#252299"/>
<rect width="5.74969" height="5.74969" transform="matrix(0.86601 -0.500028 -3.18351e-05 1 29.9795 44.5001)" fill="#312EBD"/>
<rect width="5.74969" height="5.74969" transform="matrix(0.866041 -0.499972 0.866041 0.499972 25.0001 41.6256)" fill="#828282"/>
<rect width="5.74969" height="5.74969" transform="matrix(0.86601 0.500028 3.18351e-05 1 29.9795 33.0006)" fill="#6E6E6E"/>
<rect width="5.74969" height="5.74969" transform="matrix(0.86601 -0.500028 -3.18351e-05 1 25.0002 35.8756)" fill="#5A5A5A"/>
<rect width="5.74969" height="5.74969" transform="matrix(0.866041 0.499972 -0.866041 0.499972 29.9795 38.7501)" fill="#AAAAAA"/>
<rect width="5.74969" height="5.74969" transform="matrix(0.86601 0.500028 3.18351e-05 1 25.0001 35.8749)" fill="#322098"/>
<rect width="5.74969" height="5.74969" transform="matrix(0.86601 -0.500028 -3.18351e-05 1 29.9795 38.7499)" fill="#3A21C6"/>
<rect width="5.74969" height="5.74969" transform="matrix(0.866041 -0.499972 0.866041 0.499972 25.0001 35.8754)" fill="#828282"/>
<rect width="5.74969" height="5.74969" transform="matrix(0.86601 0.500028 3.18351e-05 1 29.9795 27.2505)" fill="#6E6E6E"/>
<rect width="5.74969" height="5.74969" transform="matrix(0.86601 -0.500028 -3.18351e-05 1 25.0002 30.1255)" fill="#5A5A5A"/>
<rect width="5.74969" height="5.74969" transform="matrix(0.866041 0.499972 -0.866041 0.499972 29.9795 33)" fill="#AAAAAA"/>
<rect width="5.74969" height="5.74969" transform="matrix(0.86601 0.500028 3.18351e-05 1 25.0001 30.1246)" fill="#431E95"/>
<rect width="5.74969" height="5.74969" transform="matrix(0.86601 -0.500028 -3.18351e-05 1 29.9795 32.9998)" fill="#5425BB"/>
<rect width="5.74969" height="5.74969" transform="matrix(0.866041 -0.499972 0.866041 0.499972 25.0001 30.1253)" fill="#828282"/>
<rect width="5.74969" height="5.74969" transform="matrix(0.86601 0.500028 3.18351e-05 1 29.9795 21.5003)" fill="#6E6E6E"/>
<rect width="5.74969" height="5.74969" transform="matrix(0.86601 -0.500028 -3.18351e-05 1 25.0002 24.3753)" fill="#5A5A5A"/>
<rect width="5.74969" height="5.74969" transform="matrix(0.866041 0.499972 -0.866041 0.499972 29.9795 27.2498)" fill="#AAAAAA"/>
<rect width="5.74969" height="5.74969" transform="matrix(0.86601 0.500028 3.18351e-05 1 25.0001 24.3746)" fill="#4E1C94"/>
<rect width="5.74969" height="5.74969" transform="matrix(0.86601 -0.500028 -3.18351e-05 1 29.9795 27.2496)" fill="#6526BD"/>
<rect width="5.74969" height="5.74969" transform="matrix(0.866041 -0.499972 0.866041 0.499972 25.0001 24.3751)" fill="#828282"/>
<rect width="5.74969" height="5.74969" transform="matrix(0.86601 0.500028 3.18351e-05 1 29.9795 15.7502)" fill="#6E6E6E"/>
<rect width="5.74969" height="5.74969" transform="matrix(0.86601 -0.500028 -3.18351e-05 1 25.0002 18.6252)" fill="#5A5A5A"/>
<rect width="5.74969" height="5.74969" transform="matrix(0.866041 0.499972 -0.866041 0.499972 29.9795 21.4997)" fill="#AAAAAA"/>
<rect width="5.74969" height="5.74969" transform="matrix(0.86601 0.500028 3.18351e-05 1 25.0001 18.6244)" fill="#561A93"/>
<rect width="5.74969" height="5.74969" transform="matrix(0.86601 -0.500028 -3.18351e-05 1 29.9795 21.4994)" fill="#7025BB"/>
<rect width="5.74969" height="5.74969" transform="matrix(0.866041 -0.499972 0.866041 0.499972 25.0001 18.6249)" fill="#66208D"/>
<rect width="5.74969" height="5.74969" transform="matrix(0.86601 0.500028 3.18351e-05 1 34.963 12.8753)" fill="#6E6E6E"/>
<rect width="5.74969" height="5.74969" transform="matrix(0.86601 -0.500028 -3.18351e-05 1 29.9838 15.7502)" fill="#5A5A5A"/>
<rect width="5.74969" height="5.74969" transform="matrix(0.866041 0.499972 -0.866041 0.499972 34.963 18.6247)" fill="#AAAAAA"/>
<rect width="5.74969" height="5.74969" transform="matrix(0.86601 0.500028 3.18351e-05 1 29.9836 15.7494)" fill="#80347E"/>
<rect width="5.74969" height="5.74969" transform="matrix(0.86601 -0.500028 -3.18351e-05 1 34.963 18.6244)" fill="#983F96"/>
<rect width="5.74969" height="5.74969" transform="matrix(0.866041 -0.499972 0.866041 0.499972 29.9836 15.7501)" fill="#9D4A6D"/>
<rect width="5.74969" height="5.74969" transform="matrix(0.86601 0.500028 3.18351e-05 1 39.9464 10)" fill="#6E6E6E"/>
<rect width="5.74969" height="5.74969" transform="matrix(0.86601 -0.500028 -3.18351e-05 1 34.9671 12.875)" fill="#5A5A5A"/>
<rect width="5.74969" height="5.74969" transform="matrix(0.866041 0.499972 -0.866041 0.499972 39.9464 15.7495)" fill="#AAAAAA"/>
<rect width="5.74969" height="5.74969" transform="matrix(0.86601 0.500028 3.18351e-05 1 34.967 12.8743)" fill="#A75267"/>
<rect width="5.74969" height="5.74969" transform="matrix(0.86601 -0.500028 -3.18351e-05 1 39.9464 15.7493)" fill="#969696"/>
<rect width="5.74969" height="5.74969" transform="matrix(0.866041 -0.499972 0.866041 0.499972 34.967 12.8747)" fill="#FF8325"/>
<rect width="5.74969" height="5.74969" transform="matrix(0.86601 0.500028 3.18351e-05 1 44.9299 12.8753)" fill="#6E6E6E"/>
<rect width="5.74969" height="5.74969" transform="matrix(0.86601 -0.500028 -3.18351e-05 1 39.9507 15.7502)" fill="#5A5A5A"/>
<rect width="5.74969" height="5.74969" transform="matrix(0.866041 0.499972 -0.866041 0.499972 44.9299 18.6247)" fill="#AAAAAA"/>
<rect width="5.74969" height="5.74969" transform="matrix(0.86601 0.500028 3.18351e-05 1 39.9505 15.7494)" fill="#BA5853"/>
<rect width="5.74969" height="5.74969" transform="matrix(0.86601 -0.500028 -3.18351e-05 1 44.9299 18.6244)" fill="#722C81"/>
<rect width="5.74969" height="5.74969" transform="matrix(0.866041 -0.499972 0.866041 0.499972 39.9505 15.7501)" fill="#974369"/>
<rect width="5.74969" height="5.74969" transform="matrix(0.86601 0.500028 3.18351e-05 1 39.9464 27.2505)" fill="#6E6E6E"/>
<rect width="5.74969" height="5.74969" transform="matrix(0.86601 -0.500028 -3.18351e-05 1 34.9671 30.1255)" fill="#5A5A5A"/>
<rect width="5.74969" height="5.74969" transform="matrix(0.866041 0.499972 -0.866041 0.499972 39.9464 33)" fill="#AAAAAA"/>
<rect width="5.74969" height="5.74969" transform="matrix(0.86601 0.500028 3.18351e-05 1 34.967 30.1246)" fill="#0E2C78"/>
<rect width="5.74969" height="5.74969" transform="matrix(0.86601 -0.500028 -3.18351e-05 1 39.9464 32.9998)" fill="#1A46BA"/>
<rect width="5.74969" height="5.74969" transform="matrix(0.866041 -0.499972 0.866041 0.499972 34.967 30.1253)" fill="#2464A4"/>
<rect width="5.74969" height="5.74969" transform="matrix(0.86601 0.500028 3.18351e-05 1 44.9299 35.8759)" fill="#6E6E6E"/>
<rect width="5.74969" height="5.74969" transform="matrix(0.86601 -0.500028 -3.18351e-05 1 39.9507 38.7509)" fill="#5A5A5A"/>
<rect width="5.74969" height="5.74969" transform="matrix(0.866041 0.499972 -0.866041 0.499972 44.9299 41.6253)" fill="#AAAAAA"/>
<rect width="5.74969" height="5.74969" transform="matrix(0.86601 0.500028 3.18351e-05 1 39.9504 38.75)" fill="#0F8DA9"/>
<rect width="5.74969" height="5.74969" transform="matrix(0.86601 -0.500028 -3.18351e-05 1 44.9299 41.625)" fill="#23B5D6"/>
<rect width="5.74969" height="5.74969" transform="matrix(0.866041 -0.499972 0.866041 0.499972 39.9504 38.7505)" fill="#2681AA"/>
<rect width="5.74969" height="5.74969" transform="matrix(0.86601 0.500028 3.18351e-05 1 49.9134 21.5003)" fill="#6E6E6E"/>
<rect width="5.74969" height="5.74969" transform="matrix(0.86601 -0.500028 -3.18351e-05 1 44.934 24.3753)" fill="#5A5A5A"/>
<rect width="5.74969" height="5.74969" transform="matrix(0.866041 0.499972 -0.866041 0.499972 49.9134 27.2498)" fill="#AAAAAA"/>
<rect width="5.74969" height="5.74969" transform="matrix(0.86601 0.500028 3.18351e-05 1 44.9339 24.3746)" fill="#2D3C9C"/>
<rect width="5.74969" height="5.74969" transform="matrix(0.86601 -0.500028 -3.18351e-05 1 49.9134 27.2496)" fill="#234F9E"/>
<rect width="5.74969" height="5.74969" transform="matrix(0.866041 -0.499972 0.866041 0.499972 44.9339 24.3751)" fill="#433896"/>
<rect width="5.74969" height="5.74969" transform="matrix(0.86601 0.500028 3.18351e-05 1 49.9134 44.501)" fill="#6E6E6E"/>
<rect width="5.74969" height="5.74969" transform="matrix(0.86601 -0.500028 -3.18351e-05 1 44.934 47.376)" fill="#5A5A5A"/>
<rect width="5.74969" height="5.74969" transform="matrix(0.866041 0.499972 -0.866041 0.499972 49.9134 50.2505)" fill="#AAAAAA"/>
<rect width="5.74969" height="5.74969" transform="matrix(0.86601 0.500028 3.18351e-05 1 44.9339 47.3753)" fill="#1149B4"/>
<rect width="5.74969" height="5.74969" transform="matrix(0.86601 -0.500028 -3.18351e-05 1 49.9134 50.2503)" fill="#39CBCB"/>
<rect width="5.74969" height="5.74969" transform="matrix(0.866041 -0.499972 0.866041 0.499972 44.9339 47.3758)" fill="#2BA0B0"/>
<path d="M23.9219 61.6602V62.9844H20.8516V61.6602H23.9219ZM21.3379 61.6602V68H19.6504V61.6602H21.3379ZM25.1523 61.6602V68H23.459V61.6602H25.1523ZM28.1406 62.8789V70.4375H26.4531V61.6602H28.0176L28.1406 62.8789ZM32.1543 64.7598V64.8828C32.1543 65.3438 32.0996 65.7715 31.9902 66.166C31.8848 66.5605 31.7285 66.9043 31.5215 67.1973C31.3145 67.4863 31.0566 67.7129 30.748 67.877C30.4434 68.0371 30.0918 68.1172 29.6934 68.1172C29.3066 68.1172 28.9707 68.0391 28.6855 67.8828C28.4004 67.7266 28.1602 67.5078 27.9648 67.2266C27.7734 66.9414 27.6191 66.6113 27.502 66.2363C27.3848 65.8613 27.2949 65.459 27.2324 65.0293V64.707C27.2949 64.2461 27.3848 63.8242 27.502 63.4414C27.6191 63.0547 27.7734 62.7207 27.9648 62.4395C28.1602 62.1543 28.3984 61.9336 28.6797 61.7773C28.9648 61.6211 29.2988 61.543 29.6816 61.543C30.084 61.543 30.4375 61.6191 30.7422 61.7715C31.0508 61.9238 31.3086 62.1426 31.5156 62.4277C31.7266 62.7129 31.8848 63.0527 31.9902 63.4473C32.0996 63.8418 32.1543 64.2793 32.1543 64.7598ZM30.4609 64.8828V64.7598C30.4609 64.4902 30.4375 64.2422 30.3906 64.0156C30.3477 63.7852 30.2773 63.584 30.1797 63.4121C30.0859 63.2402 29.9609 63.1074 29.8047 63.0137C29.6523 62.916 29.4668 62.8672 29.248 62.8672C29.0176 62.8672 28.8203 62.9043 28.6562 62.9785C28.4961 63.0527 28.3652 63.1602 28.2637 63.3008C28.1621 63.4414 28.0859 63.6094 28.0352 63.8047C27.9844 64 27.9531 64.2207 27.9414 64.4668V65.2812C27.9609 65.5703 28.0156 65.8301 28.1055 66.0605C28.1953 66.2871 28.334 66.4668 28.5215 66.5996C28.709 66.7324 28.9551 66.7988 29.2598 66.7988C29.4824 66.7988 29.6699 66.75 29.8223 66.6523C29.9746 66.5508 30.0977 66.4121 30.1914 66.2363C30.2891 66.0605 30.3574 65.8574 30.3965 65.627C30.4395 65.3965 30.4609 65.1484 30.4609 64.8828ZM34.8848 65.6445L37.0117 61.6602H38.6992V68H37.0117V64.0098L34.8848 68H33.1973V61.6602H34.8848V65.6445ZM44.2656 61.6602V62.9844H41.1484V61.6602H44.2656ZM45.502 61.6602V68H43.8145V61.6602H45.502ZM40.7266 61.6602H42.3848L42.2148 64.8594C42.1914 65.3164 42.1426 65.7188 42.0684 66.0664C41.9941 66.4141 41.8945 66.7109 41.7695 66.957C41.6484 67.2031 41.502 67.4043 41.3301 67.5605C41.1621 67.7129 40.9648 67.8242 40.7383 67.8945C40.5156 67.9648 40.2695 68 40 68H39.4844L39.4668 66.6699L39.6836 66.6465C39.8086 66.6348 39.918 66.5996 40.0117 66.541C40.1094 66.4785 40.1914 66.3906 40.2578 66.2773C40.3281 66.1602 40.3867 66.0137 40.4336 65.8379C40.4805 65.6582 40.5176 65.4473 40.5449 65.2051C40.5762 64.9629 40.5977 64.6836 40.6094 64.3672L40.7266 61.6602ZM48.6074 61.6602V68H46.9199V61.6602H48.6074ZM52.7266 61.6602L49.9961 65.627H48.3086L48.1035 64.0684H49.2227L50.5879 61.6602H52.7266ZM50.6641 68L49.1055 65.3223L50.5762 64.5078L52.9258 68H50.6641ZM56.9805 66.5703V63.7461C56.9805 63.543 56.9473 63.3691 56.8809 63.2246C56.8145 63.0762 56.7109 62.9609 56.5703 62.8789C56.4336 62.7969 56.2559 62.7559 56.0371 62.7559C55.8496 62.7559 55.6875 62.7891 55.5508 62.8555C55.4141 62.918 55.3086 63.0098 55.2344 63.1309C55.1602 63.248 55.123 63.3867 55.123 63.5469H53.4355C53.4355 63.2773 53.498 63.0215 53.623 62.7793C53.748 62.5371 53.9297 62.3242 54.168 62.1406C54.4062 61.9531 54.6895 61.8066 55.0176 61.7012C55.3496 61.5957 55.7207 61.543 56.1309 61.543C56.623 61.543 57.0605 61.625 57.4434 61.7891C57.8262 61.9531 58.127 62.1992 58.3457 62.5273C58.5684 62.8555 58.6797 63.2656 58.6797 63.7578V66.4707C58.6797 66.8184 58.7012 67.1035 58.7441 67.3262C58.7871 67.5449 58.8496 67.7363 58.9316 67.9004V68H57.2266C57.1445 67.8281 57.082 67.6133 57.0391 67.3555C57 67.0938 56.9805 66.832 56.9805 66.5703ZM57.2031 64.1387L57.2148 65.0938H56.2715C56.0488 65.0938 55.8555 65.1191 55.6914 65.1699C55.5273 65.2207 55.3926 65.293 55.2871 65.3867C55.1816 65.4766 55.1035 65.582 55.0527 65.7031C55.0059 65.8242 54.9824 65.957 54.9824 66.1016C54.9824 66.2461 55.0156 66.377 55.082 66.4941C55.1484 66.6074 55.2441 66.6973 55.3691 66.7637C55.4941 66.8262 55.6406 66.8574 55.8086 66.8574C56.0625 66.8574 56.2832 66.8066 56.4707 66.7051C56.6582 66.6035 56.8027 66.4785 56.9043 66.3301C57.0098 66.1816 57.0645 66.041 57.0684 65.9082L57.5137 66.623C57.4512 66.7832 57.3652 66.9492 57.2559 67.1211C57.1504 67.293 57.0156 67.4551 56.8516 67.6074C56.6875 67.7559 56.4902 67.8789 56.2598 67.9766C56.0293 68.0703 55.7559 68.1172 55.4395 68.1172C55.0371 68.1172 54.6719 68.0371 54.3438 67.877C54.0195 67.7129 53.7617 67.4883 53.5703 67.2031C53.3828 66.9141 53.2891 66.5859 53.2891 66.2188C53.2891 65.8867 53.3516 65.5918 53.4766 65.334C53.6016 65.0762 53.7852 64.8594 54.0273 64.6836C54.2734 64.5039 54.5801 64.3691 54.9473 64.2793C55.3145 64.1855 55.7402 64.1387 56.2246 64.1387H57.2031Z" fill="white"/>
</svg>
